<svg id="图层_1" data-name="图层 1" xmlns="http://www.w3.org/2000/svg" viewBox="0 0 250 250"><defs><style>.cls-1{font-size:12px;fill:#231815;font-family:NotoSansHans-Medium-GBpc-EUC-H, Noto Sans S Chinese;}.cls-2{fill:#7dffb2;}.cls-3{fill:none;stroke:#231815;stroke-linecap:round;stroke-miterlimit:10;}</style></defs><title>画板 1</title><text class="cls-1" transform="translate(179.67 33.86)">33°</text><text class="cls-1" transform="translate(166.33 231.33)">162°</text><path class="cls-2" d="M176,48.56A91.15,91.15,0,0,1,154.5,211.69l-22.8-70.17a17.36,17.36,0,0,0,4.09-31.09Z"/><path class="cls-2" d="M121,141.52l-22.8,70.17A91.16,91.16,0,0,1,76.69,48.56l40.18,61.88A17.36,17.36,0,0,0,121,141.52Z"/><path class="cls-3" d="M98.16,211.69a91.39,91.39,0,1,1,28.17,4.45A91.16,91.16,0,0,1,98.16,211.69Z"/><polyline class="cls-3" points="120.96 141.52 98.16 211.69 94.5 222.96"/><polyline class="cls-3" points="116.87 110.44 76.69 48.56 70.24 38.62"/><polyline class="cls-3" points="131.7 141.52 154.5 211.69 158.16 222.96"/><polyline class="cls-3" points="135.79 110.43 175.97 48.56 182.43 38.62"/><path class="cls-3" d="M135.79,110.43a17.35,17.35,0,1,1-9.46-2.8A17.35,17.35,0,0,1,135.79,110.43Z"/><text class="cls-1" transform="translate(74.43 125)">500m</text><text class="cls-1" transform="translate(7.65 125)">8km</text></svg>