<svg id="图层_1_复制" data-name="图层 1_复制" xmlns="http://www.w3.org/2000/svg" viewBox="0 0 250 250"><defs><style>.cls-1,.cls-2,.cls-3,.cls-4,.cls-6,.cls-8,.cls-9{fill:none;stroke-miterlimit:10;}.cls-1{stroke:#bdfffa;}.cls-2{stroke:#00ffda;}.cls-3{stroke:#ff6;}.cls-4{stroke:#00ff48;}.cls-5{fill:#ffcaca;}.cls-6{stroke:#00a804;}.cls-7{font-size:9px;font-family:NotoSansHans-Medium-GBpc-EUC-H, Noto Sans S Chinese;}.cls-8{stroke:#040000;}.cls-9{stroke:#000;}.cls-10{letter-spacing:-0.02em;}</style></defs><title>画板 1</title><line class="cls-1" x1="125" y1="207.98" x2="179.24" y2="196.56"/><line class="cls-2" y1="125" x2="250" y2="125"/><line class="cls-1" x1="179.24" y1="196.56" x2="209.89" y2="52.58"/><line class="cls-1" x1="209.89" y1="52.58" x2="125" y2="52.58"/><line class="cls-3" x1="196.07" y1="117.5" x2="184.39" y2="172.33"/><line class="cls-4" x1="160.5" y1="117.5" x2="196.07" y2="117.5"/><line class="cls-1" x1="125" y1="207.98" x2="70.76" y2="196.56"/><line class="cls-1" x1="70.76" y1="196.56" x2="40.11" y2="52.58"/><line class="cls-1" x1="40.11" y1="52.58" x2="125" y2="52.58"/><polygon class="cls-5" points="160.5 117.5 148.47 172.33 148.47 203.04 125 207.98 101.53 203.04 101.53 172.33 89.5 117.5 103.95 117.5 125 117.5 146.05 117.5 160.5 117.5"/><line class="cls-4" x1="148.47" y1="203.04" x2="125" y2="207.98"/><line class="cls-6" x1="148.47" y1="203.04" x2="148.47" y2="172.33"/><line class="cls-6" x1="148.47" y1="172.33" x2="160.5" y2="117.5"/><line class="cls-6" x1="160.5" y1="117.5" x2="146.05" y2="117.5"/><line class="cls-1" x1="146.05" y1="117.5" x2="125" y2="117.5"/><line class="cls-4" x1="101.53" y1="203.04" x2="125" y2="207.98"/><line class="cls-6" x1="101.53" y1="203.04" x2="101.53" y2="172.33"/><line class="cls-6" x1="101.53" y1="172.33" x2="89.5" y2="117.5"/><line class="cls-6" x1="89.5" y1="117.5" x2="103.95" y2="117.5"/><line class="cls-1" x1="103.95" y1="117.5" x2="125" y2="117.5"/><line class="cls-3" x1="53.93" y1="117.5" x2="65.61" y2="172.33"/><line class="cls-4" x1="89.5" y1="117.5" x2="53.93" y2="117.5"/><text class="cls-7" transform="translate(164.41 114.69)">30mm</text><text class="cls-7" transform="translate(196.14 141.24)">100mm</text><line class="cls-6" x1="146.05" y1="117.5" x2="146.05" y2="52.58"/><line class="cls-6" x1="103.95" y1="117.5" x2="103.95" y2="52.58"/><text class="cls-7" transform="translate(148.47 82.97)">40mm</text><text class="cls-7" transform="translate(63.08 205.51)">12°</text><line class="cls-8" x1="65.61" y1="172.33" x2="70.76" y2="196.56"/><line class="cls-9" x1="65.61" y1="172.33" x2="65.61" y2="196.76"/><text class="cls-7" transform="translate(172.34 50.21)">19mm</text><text class="cls-7" transform="translate(184.41 190.21)">16mm</text><text class="cls-7" transform="translate(110.62 114.69)">20mm</text><text class="cls-7" transform="translate(108.21 160.78)">Ci<tspan class="cls-10" x="8.4" y="0">t</tspan><tspan x="11.75" y="0">adel</tspan></text></svg>